HIERARCHY
ROOT Hips
{
	OFFSET 0.000000 0.000000 0.000000
	CHANNELS 6 Xposition Yposition Zposition Xrotation Yrotation Zrotation
	JOINT LeftUpLeg_virtual
	{
		OFFSET 0.000000 0.000000 0.000000
		CHANNELS 3 Xrotation Yrotation Zrotation
		JOINT LeftUpLeg
		{
			OFFSET 13.026900 -6.336304 -1.092800
			CHANNELS 3 Xrotation Yrotation Zrotation
			JOINT LeftLeg
			{
				OFFSET 0.524474 -46.096886 9.782700
				CHANNELS 3 Xrotation Yrotation Zrotation
				JOINT LeftFoot
				{
					OFFSET -0.524474 -53.427422 -12.948200
					CHANNELS 3 Xrotation Yrotation Zrotation
					JOINT LeftToeBase
					{
						OFFSET 0.192200 -14.009700 16.364100
						CHANNELS 3 Xrotation Yrotation Zrotation
						JOINT LeftToe_End
						{
							OFFSET -1.784700 -0.561700 9.474800
							CHANNELS 3 Xrotation Yrotation Zrotation
							End Site
							{
								OFFSET 0 0 0
							}
						}
					}
				}
			}
		}
	}
	JOINT RightUpLeg_virtual
	{
		OFFSET 0.000000 0.000000 0.000000
		CHANNELS 3 Xrotation Yrotation Zrotation
		JOINT RightUpLeg
		{
			OFFSET -12.883000 -6.336304 -1.092800
			CHANNELS 3 Xrotation Yrotation Zrotation
			JOINT RightLeg
			{
				OFFSET -0.524587 -46.096825 9.782800
				CHANNELS 3 Xrotation Yrotation Zrotation
				JOINT RightFoot
				{
					OFFSET 0.524587 -53.427383 -12.948300
					CHANNELS 3 Xrotation Yrotation Zrotation
					JOINT RightToeBase
					{
						OFFSET -0.192200 -14.009700 16.364100
						CHANNELS 3 Xrotation Yrotation Zrotation
						JOINT RightToe_End
						{
							OFFSET 1.784700 -0.561700 9.474800
							CHANNELS 3 Xrotation Yrotation Zrotation
							End Site
							{
								OFFSET 0 0 0
							}
						}
					}
				}
			}
		}
	}
	JOINT Spine_virtual
	{
		OFFSET 0.000000 0.000000 0.000000
		CHANNELS 3 Xrotation Yrotation Zrotation
		JOINT Spine
		{
			OFFSET 0.072000 7.257294 -0.789700
			CHANNELS 3 Xrotation Yrotation Zrotation
			JOINT Spine1
			{
				OFFSET 0.000000 12.508769 -0.658067
				CHANNELS 3 Xrotation Yrotation Zrotation
				JOINT Spine1_split
				{
					OFFSET 0.000000 12.508769 -0.658067
					CHANNELS 3 Xrotation Yrotation Zrotation
					JOINT Spine2
					{
						OFFSET 0.000000 12.508769 -0.658067
						CHANNELS 3 Xrotation Yrotation Zrotation
						JOINT Neck_virtual
						{
							OFFSET 0.000000 0.000000 0.000000
							CHANNELS 3 Xrotation Yrotation Zrotation
							JOINT Neck
							{
								OFFSET 0.000000 14.033295 7.520400
								CHANNELS 3 Xrotation Yrotation Zrotation
								JOINT Head
								{
									OFFSET 0.000000 8.198502 5.703100
									CHANNELS 3 Xrotation Yrotation Zrotation
									JOINT HeadTop_End
									{
										OFFSET 0.000000 17.760803 13.332701
										CHANNELS 3 Xrotation Yrotation Zrotation
										End Site
										{
											OFFSET 0 0 0
										}
									}
								}
							}
						}
						JOINT LeftShoulder_virtual
						{
							OFFSET 0.000000 0.000000 0.000000
							CHANNELS 3 Xrotation Yrotation Zrotation
							JOINT LeftShoulder
							{
								OFFSET 6.292450 5.785301 -0.669000
								CHANNELS 3 Xrotation Yrotation Zrotation
								JOINT LeftShoulder_split
								{
									OFFSET 6.292450 5.785301 -0.669000
									CHANNELS 3 Xrotation Yrotation Zrotation
									JOINT LeftArm
									{
										OFFSET 13.907140 -6.093903 1.965100
										CHANNELS 3 Xrotation Yrotation Zrotation
										JOINT LeftForeArm
										{
											OFFSET 34.140198 0.000000 0.000000
											CHANNELS 3 Xrotation Yrotation Zrotation
											JOINT LeftHand
											{
												OFFSET 40.960209 0.000000 0.000000
												CHANNELS 3 Xrotation Yrotation Zrotation
												End Site
												{
													OFFSET 0 0 0
												}
											}
										}
									}
								}
							}
						}
						JOINT RightShoulder_virtual
						{
							OFFSET 0.000000 0.000000 0.000000
							CHANNELS 3 Xrotation Yrotation Zrotation
							JOINT RightShoulder
							{
								OFFSET -6.292450 5.785301 -0.669000
								CHANNELS 3 Xrotation Yrotation Zrotation
								JOINT RightShoulder_split
								{
									OFFSET -6.292450 5.785301 -0.669000
									CHANNELS 3 Xrotation Yrotation Zrotation
									JOINT RightArm
									{
										OFFSET -13.907140 -6.093903 1.965100
										CHANNELS 3 Xrotation Yrotation Zrotation
										JOINT RightForeArm
										{
											OFFSET -34.140198 0.000000 0.000000
											CHANNELS 3 Xrotation Yrotation Zrotation
											JOINT RightHand
											{
												OFFSET -40.960209 0.000000 0.000000
												CHANNELS 3 Xrotation Yrotation Zrotation
												End Site
												{
													OFFSET 0 0 0
												}
											}
										}
									}
								}
							}
						}
					}
				}
			}
		}
	}
}
MOTION
Frames: 7
Frame Time: 0.03333333
-0.903320 97.716171 -15.863712 0.000000 0.000000 0.000000 5.737493 -57.605447 6.481705 -38.598492 8.924467 27.982016 39.409314 -16.095675 1.837287 -0.701309 5.524253 -22.473600 -0.269357 -4.041385 0.603771 0.000000 0.000000 0.000000 4.715911 -54.840180 5.332035 -34.485608 -21.975719 -29.899853 36.423135 19.387048 -3.400159 -7.426398 -11.153888 23.791967 7.544442 4.833251 -9.362224 0.000000 0.000000 0.000000 -0.716907 -49.705267 2.559180 12.855238 4.752430 1.578181 8.942277 -6.845602 -0.924387 0.213617 0.304398 -0.109100 0.000000 0.000000 0.000000 10.473422 -2.910580 -2.410484 16.406963 36.506159 -3.349149 17.031090 51.338717 -21.573487 0.000000 0.000000 0.000000 7.480945 -6.597775 -2.424802 2.963295 -9.641651 -10.331133 -2.048343 -3.611640 -3.589911 -40.351047 0.663562 -30.382686 37.745596 -26.612717 25.474259 0.000000 0.000000 0.000000 6.475510 -5.574256 -0.525044 -8.687626 10.859690 13.012676 12.581794 -2.584408 -3.207720 10.319686 -25.667586 51.894746 -14.858588 46.501396 8.567372 0.000000 0.000000 0.000000 
-1.170851 97.855194 -15.603008 0.000000 0.000000 0.000000 5.398527 -56.768513 5.884137 -38.158682 9.158232 28.267040 39.840203 -16.087419 1.892827 -0.341896 5.270110 -22.411912 -0.689218 -4.121947 0.892049 0.000000 0.000000 0.000000 4.513961 -54.529823 4.943042 -34.087821 -21.918924 -29.562223 35.455693 19.327282 -3.323030 -7.193599 -10.994372 24.397086 6.562818 4.929129 -9.318511 0.000000 0.000000 0.000000 -1.512275 -49.896991 1.552821 12.552585 4.283683 1.823943 9.015813 -6.648452 -0.716745 -0.055935 0.293077 -0.079941 0.000000 0.000000 0.000000 10.165039 -2.572799 -2.547674 17.420047 35.895615 -3.225225 14.544705 52.172701 -20.252600 0.000000 0.000000 0.000000 7.401265 -6.368758 -2.438166 2.605866 -10.203184 -10.227212 -0.219708 -2.815924 -4.388713 -38.735246 4.094995 -30.201836 37.484580 -23.588169 24.616191 0.000000 0.000000 0.000000 6.147044 -5.166967 -0.343234 -9.524952 9.095071 12.619399 14.043017 -7.782960 -0.910171 6.720577 -24.732228 49.223626 -12.062898 42.887174 7.143105 0.000000 0.000000 0.000000 
-1.471845 98.089684 -15.247150 0.000000 0.000000 0.000000 4.925401 -56.263028 4.978708 -37.320208 9.690108 28.550934 39.719852 -15.662370 1.862856 -0.360433 5.296580 -21.560817 -1.743795 -4.196339 1.163101 0.000000 0.000000 0.000000 4.483912 -54.195038 4.385338 -33.374340 -21.700804 -29.094113 34.411511 19.400778 -3.293765 -6.855373 -10.920553 25.310775 5.700214 5.024364 -9.083722 0.000000 0.000000 0.000000 -1.327713 -49.801296 0.718641 11.666932 3.289369 1.817106 8.620322 -6.301016 -0.109231 -0.205781 0.348692 0.053369 0.000000 0.000000 0.000000 9.781363 -2.352033 -1.850890 17.278176 34.506894 -2.541657 14.028136 51.680196 -22.653297 0.000000 0.000000 0.000000 6.763145 -6.040618 -1.875336 1.908516 -11.160638 -11.293947 0.323872 -2.812722 -3.574422 -33.538592 9.114296 -29.494505 38.847203 -22.413230 25.223089 0.000000 0.000000 0.000000 5.506478 -4.945325 0.233640 -10.711493 6.321400 11.886215 13.874401 -11.385148 0.355126 0.093371 -26.663006 46.707190 -7.368890 40.946574 4.756035 0.000000 0.000000 0.000000 
-1.738897 98.318466 -14.863140 0.000000 0.000000 0.000000 4.463164 -56.166097 3.992431 -36.450469 10.443053 28.788018 39.368377 -14.795100 1.744484 -0.896166 5.564305 -20.001675 -2.454503 -4.210983 1.245486 0.000000 0.000000 0.000000 4.525739 -53.972203 3.757460 -32.559638 -21.371945 -28.640680 33.573081 19.593977 -3.362567 -6.806707 -11.076048 26.351375 5.399765 5.091206 -8.764056 0.000000 0.000000 0.000000 0.044996 -49.437920 0.357646 10.318306 1.905400 1.592463 7.830429 -5.858658 0.691047 -0.187624 0.237943 0.108626 0.000000 0.000000 0.000000 9.281220 -2.261529 -0.555237 15.929821 32.512657 -1.198800 15.510627 49.533550 -28.347358 0.000000 0.000000 0.000000 5.733045 -5.666410 -0.951719 1.024444 -12.206316 -13.348578 0.853005 -3.321558 -1.592881 -26.225558 15.253756 -28.472388 41.631635 -23.716939 27.280684 0.000000 0.000000 0.000000 4.819916 -4.870724 1.001536 -12.039388 3.419563 10.092426 11.205999 -11.436811 0.017677 -9.431550 -31.898237 43.870927 -1.421402 41.492911 1.717993 0.000000 0.000000 0.000000 
-1.865499 98.418472 -14.441929 0.000000 0.000000 0.000000 4.176135 -56.054939 3.160941 -36.075553 11.073594 28.962065 39.313449 -13.937678 1.702707 -1.556872 5.639651 -18.531459 -2.183831 -4.127661 1.123164 0.000000 0.000000 0.000000 4.471882 -53.803606 3.152010 -31.791491 -20.986489 -28.304191 33.335790 19.820818 -3.597926 -7.265348 -11.622511 27.342308 5.587958 5.142288 -8.455953 0.000000 0.000000 0.000000 2.236283 -48.774791 0.478156 8.656571 0.318272 1.173128 6.710147 -5.472072 1.445633 -0.006516 -0.101752 0.077559 0.000000 0.000000 0.000000 8.593448 -2.289857 0.926695 13.465691 30.073384 0.813071 18.149343 45.718493 -36.059526 0.000000 0.000000 0.000000 4.475218 -5.376678 -0.010157 0.112811 -13.112334 -15.819417 1.831440 -4.320125 0.947153 -18.733426 22.013929 -27.200450 45.432902 -27.514992 30.499038 0.000000 0.000000 0.000000 4.198741 -4.909615 1.653524 -13.490207 0.880929 6.637731 6.457800 -9.924990 1.173841 -22.098148 -40.053291 38.754480 5.367417 45.936973 -2.063651 0.000000 0.000000 0.000000 
-1.729195 98.254158 -14.264568 0.000000 0.000000 0.000000 4.134684 -55.527321 2.638464 -36.632200 11.206339 29.034851 39.830873 -13.363724 1.822181 -2.043087 5.133684 -17.569036 -1.353618 -3.993489 1.077214 0.000000 0.000000 0.000000 4.373794 -53.406998 2.695831 -31.134687 -20.660776 -28.154803 33.952126 20.051545 -4.018376 -8.097452 -12.574988 28.275504 5.780155 5.205160 -8.264792 0.000000 0.000000 0.000000 4.504500 -47.573555 0.939382 7.004041 -1.194346 0.659215 5.436903 -5.182294 1.844950 0.059651 -0.445330 0.043505 0.000000 0.000000 0.000000 7.816851 -2.387271 2.084196 10.299591 27.311734 3.407752 20.859092 40.378118 -44.051274 0.000000 0.000000 0.000000 3.296917 -5.198212 0.625291 -0.627049 -13.673908 -18.072576 3.070127 -5.208260 3.058330 -13.485642 27.964814 -25.285657 49.481975 -33.215155 34.212957 0.000000 0.000000 0.000000 3.632702 -4.968368 1.895077 -15.065386 -1.104224 0.782043 -0.074429 -8.350635 4.192080 -38.077403 -48.088196 28.752112 13.609840 55.955348 -7.818193 0.000000 0.000000 0.000000 
-1.334769 97.806458 -14.383289 0.000000 0.000000 0.000000 4.113096 -54.259863 2.328630 -38.069463 10.782845 28.976763 40.827685 -13.249075 2.116597 -2.237876 3.908470 -17.328415 -0.672736 -3.866025 1.293626 0.000000 0.000000 0.000000 4.262870 -52.502623 2.419064 -30.656580 -20.488402 -28.248558 35.383331 20.302099 -4.589103 -9.040003 -13.774890 29.303287 5.602183 5.286035 -8.220972 0.000000 0.000000 0.000000 6.326597 -45.922681 1.494179 5.575652 -2.277142 0.237758 4.194337 -5.001203 1.748282 -0.007916 -0.746702 0.014971 0.000000 0.000000 0.000000 6.981537 -2.541499 2.642247 7.109999 24.380999 6.283687 22.066786 34.056580 -50.160663 0.000000 0.000000 0.000000 2.296605 -5.044014 0.767518 -1.029956 -13.628740 -19.551065 4.188365 -6.038659 4.210930 -11.743814 31.785655 -22.377699 52.745378 -39.637490 37.416791 0.000000 0.000000 0.000000 3.175435 -5.056028 1.517938 -16.585888 -1.899077 -7.300258 -7.672652 -9.450289 7.852055 -57.308204 -51.934610 13.175661 29.219621 71.473715 -21.478920 0.000000 0.000000 0.000000 
